# xmcd
#
# Track frame offsets: 
#        150
#        23373
#        42464
#        57103
#        73726
#        91965
#        103938
#        128052
#        143733
#        164076
#        180318
#        198468
#        216097
#        235809
#        253546
#
# Disc length: 3728 seconds
#
# Revision: 0
# Processed by: cddbd v1.5.2PL0 Copyright (c) Steve Scherf et al.
# Submitted via: ExactAudioCopy v1.0b3
#
DISCID=d10e8e0f
DTITLE=Spreading Point - re-start [re-mixed]
DYEAR=2013
DGENRE=Synthpop
TTITLE0=Turning Point (People Theatre’s Curve Mix)
TTITLE1=Zeit der Unbefangenheit (Supercraft Remix)
TTITLE2=My Sweet Jana (Conductor’s Version)
TTITLE3=Eternity (Sternenstaub Version)
TTITLE4=Emotional Ice Age (F.P. Remix)
TTITLE5=Time Travelers (Clockwork Version)
TTITLE6=Verloren (People Theatre’s Rache Mix)
TTITLE7=Precious One (Light Up Faces Version)
TTITLE8=Space Age Romance (Lustobjekt Meets SP)
TTITLE9=Thrill Of Joy
TTITLE10=Turning Point (Cloned Metal Mix)
TTITLE11=Zeit der Unbefangenheit (Dark Phenomenon Remix)
TTITLE12=Emotional Ice Age (Lustobjekt Rework)
TTITLE13=Verloren (Stutter Edit)
TTITLE14=Space Age Romance (People Theatre’s Odyssey Mix)
EXTD=
EXTT0=
EXTT1=
EXTT2=
EXTT3=
EXTT4=
EXTT5=
EXTT6=
EXTT7=
EXTT8=
EXTT9=
EXTT10=
EXTT11=
EXTT12=
EXTT13=
EXTT14=
PLAYORDER=
